<svg xmlns="http://www.w3.org/2000/svg" width="512" height="512" viewBox="0 0 512 512">
  <defs>
    <!-- 品牌主色渐变：与站点主色系匹配 -->
    <linearGradient id="bg" x1="0" y1="0" x2="1" y2="1">
      <stop offset="0%" stop-color="#4F46E5"/>
      <stop offset="100%" stop-color="#22D3EE"/>
    </linearGradient>
    <linearGradient id="accent" x1="0" y1="0" x2="1" y2="1">
      <stop offset="0%" stop-color="#FDE68A"/>
      <stop offset="100%" stop-color="#F59E0B"/>
    </linearGradient>
  </defs>

  <!-- 圆角方形底座 -->
  <rect x="40" y="40" width="432" height="432" rx="96" fill="url(#bg)"/>

  <!-- AppFactory 标志：字母 A/F 融合 + 工厂屋顶轮廓 -->
  <g fill="none" stroke="#FFFFFF" stroke-width="28" stroke-linecap="round" stroke-linejoin="round" transform="translate(96,112)">
    <!-- 工厂屋顶（象征 Factory） -->
    <path d="M0 156 L64 108 L128 156 L192 108 L256 156 L256 240 C256 258 242 272 224 272 L32 272 C14 272 0 258 0 240 Z" fill="rgba(255,255,255,0.08)" stroke="none"/>

    <!-- 字母 A 的骨架（象征 App） -->
    <path d="M64 208 L128 48 L192 208"/>
    <path d="M88 160 L168 160"/>

    <!-- 字母 F 的骨架（与屋顶线条融合） -->
    <path d="M288 80 L288 256"/>
    <path d="M288 80 L352 80"/>
    <path d="M288 160 L336 160"/>
  </g>

  <!-- 烟囱点缀与信号化（科技/云端感） -->
  <g transform="translate(340,132)">
    <rect x="0" y="0" width="24" height="56" rx="6" fill="#FFFFFF" opacity="0.9"/>
    <circle cx="12" cy="-10" r="6" fill="url(#accent)"/>
    <circle cx="12" cy="-26" r="4" fill="url(#accent)" opacity="0.9"/>
  </g>
</svg>

